<?xml version="1.0" encoding="UTF-8"?>
<svg xmlns="http://www.w3.org/2000/svg" xmlns:xlink="http://www.w3.org/1999/xlink" width="32px" height="32px" viewBox="0 0 32 32" version="1.1">
<g id="surface1">
<path style=" stroke:none;fill-rule:nonzero;fill:rgb(89.803922%,9.019608%,24.313725%);fill-opacity:1;" d="M 8.378906 16.902344 L 11.042969 16.902344 L 9.710938 13.230469 Z M 8.378906 16.902344 "/>
<path style=" stroke:none;fill-rule:nonzero;fill:rgb(89.803922%,9.019608%,24.313725%);fill-opacity:1;" d="M 21.390625 4.289062 C 20.121094 4.289062 18.898438 4.382812 17.796875 4.5625 L 17.796875 3.390625 C 17.796875 3.121094 17.679688 2.867188 17.472656 2.695312 C 17.265625 2.523438 16.992188 2.449219 16.734375 2.503906 L 2.359375 5.207031 C 1.933594 5.285156 1.625 5.65625 1.625 6.089844 L 1.625 25.910156 C 1.625 26.34375 1.933594 26.714844 2.359375 26.792969 L 16.734375 29.496094 C 16.785156 29.507812 16.84375 29.511719 16.898438 29.511719 C 17.105469 29.511719 17.308594 29.441406 17.472656 29.304688 C 17.679688 29.136719 17.796875 28.878906 17.796875 28.613281 L 17.796875 27.4375 C 18.898438 27.617188 20.117188 27.710938 21.390625 27.710938 C 25.71875 27.710938 30.375 26.585938 30.375 24.109375 L 30.375 7.894531 C 30.375 5.417969 25.71875 4.289062 21.390625 4.289062 Z M 13.613281 21.351562 C 13.507812 21.386719 13.40625 21.40625 13.304688 21.40625 C 12.9375 21.40625 12.59375 21.179688 12.460938 20.8125 L 11.695312 18.703125 L 7.726562 18.703125 L 6.964844 20.8125 C 6.792969 21.28125 6.28125 21.523438 5.8125 21.351562 C 5.347656 21.183594 5.105469 20.664062 5.273438 20.195312 L 8.867188 10.289062 C 9.125 9.574219 10.296875 9.574219 10.554688 10.289062 L 14.148438 20.195312 C 14.320312 20.664062 14.078125 21.183594 13.613281 21.351562 Z M 28.578125 24.109375 C 28.578125 24.570312 26.105469 25.910156 21.390625 25.910156 C 20.097656 25.910156 18.871094 25.808594 17.796875 25.609375 L 17.796875 22.03125 C 18.898438 22.210938 20.117188 22.308594 21.390625 22.308594 C 24.046875 22.308594 26.824219 21.878906 28.578125 20.976562 Z M 28.578125 18.703125 C 28.578125 19.167969 26.105469 20.503906 21.390625 20.503906 C 20.097656 20.503906 18.871094 20.402344 17.796875 20.207031 L 17.796875 16.628906 C 18.898438 16.808594 20.121094 16.902344 21.390625 16.902344 C 24.046875 16.902344 26.824219 16.472656 28.578125 15.570312 Z M 28.578125 13.296875 C 28.578125 13.761719 26.105469 15.101562 21.390625 15.101562 C 20.097656 15.101562 18.871094 14.996094 17.796875 14.800781 L 17.796875 11.222656 C 18.898438 11.402344 20.121094 11.496094 21.390625 11.496094 C 24.046875 11.496094 26.824219 11.070312 28.578125 10.167969 Z M 21.390625 9.695312 C 20.097656 9.695312 18.871094 9.59375 17.796875 9.394531 L 17.796875 6.390625 C 18.875 6.195312 20.097656 6.089844 21.390625 6.089844 C 26.105469 6.089844 28.578125 7.429688 28.578125 7.894531 C 28.578125 8.355469 26.105469 9.695312 21.390625 9.695312 Z M 21.390625 9.695312 "/>
</g>
</svg>
