<?xml version="1.0" encoding="UTF-8"?>
<svg xmlns="http://www.w3.org/2000/svg" xmlns:xlink="http://www.w3.org/1999/xlink" width="32px" height="32px" viewBox="0 0 32 32" version="1.1">
<g id="surface1">
<path style=" stroke:none;fill-rule:nonzero;fill:rgb(0%,0%,0%);fill-opacity:1;" d="M 28.457031 11.25 C 27.335938 9.039062 25.292969 7.457031 22.910156 6.894531 C 21.429688 4.28125 18.707031 2.667969 15.679688 2.667969 L 14.988281 2.667969 C 10.964844 2.667969 7.601562 5.535156 6.832031 9.332031 L 6.667969 9.332031 C 4.460938 9.332031 2.667969 11.128906 2.667969 13.332031 L 2.667969 15.375 C 2.667969 17.871094 4.113281 20.210938 6.359375 21.34375 L 8 22.160156 L 8 24 C 8 24.738281 8.597656 25.332031 9.332031 25.332031 L 11.671875 25.332031 C 11.679688 25.335938 11.6875 25.339844 11.691406 25.34375 L 13.332031 26.160156 L 13.332031 28 C 13.332031 28.738281 13.929688 29.332031 14.667969 29.332031 L 24 29.332031 C 24.738281 29.332031 25.332031 28.738281 25.332031 28 L 25.335938 26.046875 L 26.367188 25.363281 C 28.222656 24.125 29.332031 22.050781 29.332031 19.8125 L 29.332031 14.988281 C 29.332031 13.691406 29.039062 12.4375 28.457031 11.25 Z M 12.039062 22.667969 L 10.667969 22.667969 L 10.667969 22.160156 C 10.667969 21.136719 10.101562 20.21875 9.1875 19.761719 L 7.546875 18.957031 C 6.203125 18.277344 5.332031 16.871094 5.332031 15.375 L 5.332031 13.332031 C 5.332031 12.597656 5.933594 12 6.667969 12 L 6.667969 13.332031 C 6.667969 14.070312 7.261719 14.667969 8 14.667969 C 8.738281 14.667969 9.332031 14.070312 9.332031 13.332031 L 9.332031 10.988281 C 9.332031 7.871094 11.871094 5.332031 14.988281 5.332031 L 15.679688 5.332031 C 17.835938 5.332031 19.773438 6.527344 20.757812 8.480469 C 20.765625 8.5 20.78125 8.511719 20.785156 8.53125 C 20.800781 8.566406 20.804688 8.601562 20.820312 8.632812 C 21.15625 9.347656 21.332031 10.160156 21.332031 10.988281 L 21.332031 15.8125 C 21.332031 17.15625 20.667969 18.402344 19.554688 19.140625 L 18.519531 19.828125 C 17.777344 20.332031 17.332031 21.164062 17.332031 22.054688 L 17.332031 22.667969 Z M 26.667969 19.8125 C 26.667969 21.15625 26 22.402344 24.890625 23.140625 L 23.855469 23.828125 C 23.109375 24.332031 22.667969 25.164062 22.667969 26.054688 L 22.667969 26.667969 L 16 26.667969 L 16 26.160156 C 16 25.875 15.957031 25.59375 15.871094 25.332031 L 18.667969 25.332031 C 19.402344 25.332031 20 24.738281 20 24 L 20.003906 22.046875 L 21.03125 21.363281 C 22.890625 20.125 24 18.050781 24 15.8125 L 24 10.988281 C 24 10.710938 23.984375 10.433594 23.960938 10.160156 C 24.851562 10.703125 25.589844 11.488281 26.070312 12.441406 C 26.464844 13.246094 26.667969 14.101562 26.667969 14.988281 Z M 26.667969 19.8125 "/>
</g>
</svg>
