<?xml version="1.0" encoding="UTF-8"?>
<svg xmlns="http://www.w3.org/2000/svg" xmlns:xlink="http://www.w3.org/1999/xlink" width="32px" height="32px" viewBox="0 0 32 32" version="1.1">
<g id="surface1">
<path style=" stroke:none;fill-rule:nonzero;fill:rgb(23.921569%,23.921569%,38.823529%);fill-opacity:1;" d="M 5.507812 8.394531 C 5.507812 8.6875 5.269531 8.929688 4.976562 8.929688 C 4.679688 8.929688 4.441406 8.6875 4.441406 8.394531 C 4.441406 8.101562 4.679688 7.863281 4.976562 7.863281 C 5.269531 7.863281 5.507812 8.101562 5.507812 8.394531 Z M 5.507812 8.394531 "/>
<path style=" stroke:none;fill-rule:nonzero;fill:rgb(23.921569%,23.921569%,38.823529%);fill-opacity:1;" d="M 9.066406 8.394531 C 9.066406 8.6875 8.828125 8.929688 8.535156 8.929688 C 8.238281 8.929688 8 8.6875 8 8.394531 C 8 8.101562 8.238281 7.863281 8.535156 7.863281 C 8.828125 7.863281 9.066406 8.101562 9.066406 8.394531 Z M 9.066406 8.394531 "/>
<path style=" stroke:none;fill-rule:nonzero;fill:rgb(23.921569%,23.921569%,38.823529%);fill-opacity:1;" d="M 7.289062 8.394531 C 7.289062 8.6875 7.050781 8.929688 6.757812 8.929688 C 6.460938 8.929688 6.222656 8.6875 6.222656 8.394531 C 6.222656 8.101562 6.460938 7.863281 6.757812 7.863281 C 7.050781 7.863281 7.289062 8.101562 7.289062 8.394531 Z M 7.289062 8.394531 "/>
<path style=" stroke:none;fill-rule:nonzero;fill:rgb(23.921569%,23.921569%,38.823529%);fill-opacity:1;" d="M 10.667969 16.132812 L 12.265625 14.535156 C 12.476562 14.324219 12.476562 13.984375 12.265625 13.777344 C 12.058594 13.566406 11.71875 13.566406 11.507812 13.777344 L 9.523438 15.765625 C 9.320312 15.972656 9.320312 16.308594 9.523438 16.515625 L 11.507812 18.507812 C 11.609375 18.609375 11.746094 18.664062 11.886719 18.664062 C 12.03125 18.664062 12.167969 18.609375 12.265625 18.507812 C 12.472656 18.296875 12.472656 17.960938 12.265625 17.753906 Z M 10.667969 16.132812 "/>
<path style=" stroke:none;fill-rule:nonzero;fill:rgb(23.921569%,23.921569%,38.823529%);fill-opacity:1;" d="M 18.304688 18.496094 C 18.511719 18.703125 18.847656 18.703125 19.054688 18.496094 L 21.046875 16.535156 C 21.253906 16.324219 21.253906 15.988281 21.046875 15.78125 L 19.054688 13.792969 C 18.847656 13.585938 18.507812 13.585938 18.300781 13.792969 C 18.09375 14.003906 18.09375 14.339844 18.304688 14.550781 L 19.902344 16.148438 L 18.304688 17.75 C 18.101562 17.957031 18.101562 18.289062 18.304688 18.496094 Z M 18.304688 18.496094 "/>
<path style=" stroke:none;fill-rule:nonzero;fill:rgb(23.921569%,23.921569%,38.823529%);fill-opacity:1;" d="M 16.535156 13.945312 C 16.410156 13.875 16.265625 13.855469 16.125 13.894531 C 15.988281 13.929688 15.871094 14.019531 15.800781 14.144531 L 13.835938 17.601562 C 13.730469 17.765625 13.722656 17.976562 13.820312 18.144531 C 13.914062 18.316406 14.097656 18.421875 14.292969 18.417969 C 14.488281 18.417969 14.667969 18.308594 14.757812 18.132812 L 16.746094 14.691406 C 16.820312 14.566406 16.839844 14.414062 16.800781 14.273438 C 16.761719 14.132812 16.664062 14.015625 16.535156 13.945312 Z M 16.535156 13.945312 "/>
<path style=" stroke:none;fill-rule:nonzero;fill:rgb(23.921569%,23.921569%,38.823529%);fill-opacity:1;" d="M 29.792969 21.332031 C 29.726562 21.332031 29.671875 21.292969 29.648438 21.230469 C 29.4375 20.671875 29.136719 20.152344 28.757812 19.691406 C 28.71875 19.636719 28.71875 19.566406 28.757812 19.515625 C 29.09375 18.929688 28.894531 18.179688 28.308594 17.839844 L 27.910156 17.601562 L 27.910156 7.863281 C 27.910156 6.976562 27.191406 6.261719 26.308594 6.261719 L 4.265625 6.261719 C 3.382812 6.261719 2.667969 6.976562 2.667969 7.863281 L 2.667969 21.375 C 2.667969 22.0625 3.222656 22.617188 3.910156 22.617188 L 11.199219 22.617188 L 10.667969 24.59375 L 9.957031 24.59375 C 8.886719 24.59375 7.957031 25.328125 7.710938 26.367188 L 6.398438 26.367188 C 6.105469 26.367188 5.867188 26.605469 5.867188 26.902344 C 5.867188 27.195312 6.105469 27.433594 6.398438 27.433594 L 19.984375 27.433594 C 19.976562 27.5625 19.988281 27.691406 20.019531 27.8125 C 20.101562 28.128906 20.308594 28.398438 20.59375 28.558594 L 21.71875 29.210938 C 22.304688 29.546875 23.054688 29.34375 23.390625 28.757812 C 23.425781 28.703125 23.492188 28.671875 23.558594 28.683594 C 24.144531 28.785156 24.742188 28.785156 25.328125 28.683594 C 25.394531 28.671875 25.460938 28.703125 25.492188 28.761719 C 25.714844 29.140625 26.121094 29.375 26.558594 29.371094 C 26.773438 29.371094 26.988281 29.316406 27.171875 29.210938 L 28.296875 28.558594 C 28.582031 28.398438 28.785156 28.128906 28.871094 27.8125 C 28.957031 27.5 28.910156 27.164062 28.746094 26.886719 C 28.710938 26.832031 28.710938 26.757812 28.746094 26.703125 C 29.125 26.242188 29.425781 25.722656 29.636719 25.167969 C 29.65625 25.105469 29.714844 25.066406 29.78125 25.066406 C 30.457031 25.0625 31.003906 24.515625 31.007812 23.839844 L 31.007812 22.539062 C 30.996094 21.875 30.457031 21.339844 29.792969 21.332031 Z M 3.734375 7.863281 C 3.734375 7.566406 3.972656 7.328125 4.265625 7.328125 L 26.308594 7.328125 C 26.605469 7.328125 26.84375 7.566406 26.84375 7.863281 L 26.84375 9.460938 L 3.734375 9.460938 Z M 3.910156 21.550781 C 3.8125 21.550781 3.734375 21.472656 3.734375 21.375 L 3.734375 10.527344 L 26.84375 10.527344 L 26.84375 17.066406 C 26.324219 16.929688 25.777344 17.144531 25.492188 17.601562 C 25.460938 17.652344 25.394531 17.679688 25.332031 17.667969 C 24.746094 17.574219 24.148438 17.574219 23.5625 17.667969 C 23.5 17.683594 23.4375 17.65625 23.402344 17.601562 C 23.242188 17.316406 22.972656 17.113281 22.660156 17.027344 C 22.34375 16.941406 22.007812 16.988281 21.726562 17.152344 L 20.601562 17.800781 C 20.320312 17.960938 20.113281 18.230469 20.03125 18.542969 C 19.945312 18.859375 19.988281 19.195312 20.148438 19.476562 C 20.1875 19.527344 20.1875 19.601562 20.148438 19.652344 C 19.773438 20.117188 19.472656 20.636719 19.257812 21.195312 C 19.238281 21.253906 19.179688 21.296875 19.113281 21.296875 C 18.851562 21.296875 18.597656 21.378906 18.390625 21.535156 Z M 18.132812 24.59375 L 11.734375 24.59375 L 12.265625 22.617188 L 17.867188 22.617188 L 17.867188 23.839844 C 17.871094 24.113281 17.964844 24.378906 18.132812 24.59375 Z M 9.960938 25.660156 L 19.457031 25.660156 C 19.578125 25.90625 19.71875 26.140625 19.871094 26.367188 L 8.835938 26.367188 C 9.042969 25.933594 9.480469 25.660156 9.957031 25.660156 Z M 29.953125 23.839844 C 29.953125 23.929688 29.878906 24 29.792969 24 C 29.285156 24 28.828125 24.316406 28.644531 24.789062 C 28.476562 25.238281 28.234375 25.660156 27.929688 26.03125 C 27.609375 26.425781 27.566406 26.976562 27.820312 27.417969 C 27.835938 27.457031 27.835938 27.5 27.820312 27.535156 C 27.808594 27.578125 27.78125 27.617188 27.742188 27.636719 L 26.632812 28.265625 C 26.597656 28.289062 26.554688 28.292969 26.511719 28.28125 C 26.472656 28.269531 26.4375 28.242188 26.414062 28.203125 C 26.15625 27.761719 25.65625 27.527344 25.152344 27.609375 C 24.683594 27.691406 24.203125 27.691406 23.734375 27.609375 C 23.230469 27.527344 22.726562 27.765625 22.46875 28.207031 C 22.421875 28.28125 22.328125 28.308594 22.25 28.265625 L 21.125 27.617188 C 21.085938 27.59375 21.058594 27.558594 21.050781 27.515625 C 21.035156 27.476562 21.035156 27.433594 21.050781 27.398438 C 21.300781 26.957031 21.253906 26.40625 20.9375 26.011719 C 20.632812 25.636719 20.390625 25.21875 20.21875 24.769531 C 20.035156 24.304688 19.589844 24.003906 19.09375 24 C 19.003906 24 18.933594 23.929688 18.933594 23.839844 L 18.933594 22.539062 C 18.933594 22.496094 18.949219 22.453125 18.980469 22.425781 C 19.007812 22.394531 19.050781 22.378906 19.09375 22.378906 C 19.601562 22.375 20.054688 22.0625 20.234375 21.589844 C 20.40625 21.136719 20.648438 20.71875 20.953125 20.347656 C 21.269531 19.949219 21.316406 19.402344 21.066406 18.960938 C 21.050781 18.921875 21.050781 18.875 21.066406 18.835938 C 21.074219 18.796875 21.101562 18.761719 21.140625 18.742188 L 22.265625 18.089844 C 22.292969 18.082031 22.320312 18.082031 22.347656 18.089844 C 22.402344 18.089844 22.449219 18.121094 22.480469 18.164062 C 22.738281 18.605469 23.238281 18.84375 23.742188 18.761719 C 24.214844 18.683594 24.691406 18.683594 25.164062 18.761719 C 25.671875 18.832031 26.167969 18.582031 26.414062 18.132812 C 26.4375 18.097656 26.472656 18.070312 26.511719 18.0625 C 26.550781 18.050781 26.59375 18.058594 26.628906 18.078125 L 27.753906 18.730469 C 27.792969 18.75 27.820312 18.785156 27.828125 18.828125 C 27.847656 18.867188 27.847656 18.910156 27.828125 18.949219 C 27.578125 19.390625 27.621094 19.9375 27.941406 20.332031 C 28.246094 20.707031 28.484375 21.128906 28.65625 21.578125 C 28.828125 22.0625 29.28125 22.386719 29.792969 22.398438 C 29.835938 22.398438 29.875 22.414062 29.90625 22.445312 C 29.9375 22.476562 29.953125 22.515625 29.953125 22.558594 Z M 29.953125 23.839844 "/>
<path style=" stroke:none;fill-rule:nonzero;fill:rgb(23.921569%,23.921569%,38.823529%);fill-opacity:1;" d="M 24.441406 20.769531 C 23.105469 20.769531 22.019531 21.851562 22.019531 23.1875 C 22.019531 24.527344 23.105469 25.609375 24.441406 25.609375 C 25.78125 25.609375 26.863281 24.527344 26.863281 23.1875 C 26.863281 21.851562 25.78125 20.769531 24.441406 20.769531 Z M 24.441406 24.542969 C 23.695312 24.542969 23.089844 23.9375 23.089844 23.1875 C 23.089844 22.441406 23.695312 21.835938 24.441406 21.835938 C 25.191406 21.835938 25.796875 22.441406 25.796875 23.1875 C 25.792969 23.933594 25.1875 24.535156 24.441406 24.535156 Z M 24.441406 24.542969 "/>
</g>
</svg>
