<?xml version="1.0" encoding="UTF-8"?>
<svg xmlns="http://www.w3.org/2000/svg" xmlns:xlink="http://www.w3.org/1999/xlink" width="32px" height="32px" viewBox="0 0 32 32" version="1.1">
<g id="surface1">
<path style=" stroke:none;fill-rule:nonzero;fill:rgb(89.411765%,30.196078%,14.901961%);fill-opacity:1;" d="M 27.378906 28.890625 L 16 32 L 4.625 28.890625 L 2 0 L 30.003906 0 Z M 27.378906 28.890625 "/>
<path style=" stroke:none;fill-rule:nonzero;fill:rgb(100%,42.352941%,22.352941%);fill-opacity:1;" d="M 16 2 L 16 29.75 L 25.230469 27.007812 L 27.6875 2 Z M 16 2 "/>
<path style=" stroke:none;fill-rule:nonzero;fill:rgb(100%,100%,100%);fill-opacity:1;" d="M 24.363281 6 L 7.605469 6 L 8 10 L 8.617188 17 L 19.503906 17 L 19.148438 20.984375 L 16 21.988281 L 12.855469 20.984375 L 12.648438 19 L 8.804688 19 L 9.261719 23.988281 L 16 25.988281 L 22.726562 23.984375 L 23.71875 13 L 12.253906 13 L 12.003906 10 L 24 10 Z M 24.363281 6 "/>
</g>
</svg>
