<?xml version="1.0" encoding="UTF-8"?>
<svg xmlns="http://www.w3.org/2000/svg" xmlns:xlink="http://www.w3.org/1999/xlink" width="32px" height="32px" viewBox="0 0 32 32" version="1.1">
<g id="surface1">
<path style=" stroke:none;fill-rule:nonzero;fill:rgb(94.117647%,85.882353%,30.980392%);fill-opacity:1;" d="M 28.5 16 C 28.5 22.902344 22.902344 28.5 16 28.5 C 9.097656 28.5 3.5 22.902344 3.5 16 C 3.5 9.097656 9.097656 3.5 16 3.5 C 22.902344 3.5 28.5 9.097656 28.5 16 Z M 28.5 16 "/>
<path style=" stroke:none;fill-rule:nonzero;fill:rgb(19.607843%,20%,18.823529%);fill-opacity:1;" d="M 12.101562 11.148438 L 14.273438 11.148438 L 14.273438 17.273438 C 14.273438 20.023438 12.949219 21 10.851562 21 C 10.324219 21 9.675781 20.925781 9.25 20.773438 L 9.5 19 C 9.800781 19.101562 10.199219 19.175781 10.625 19.175781 C 11.550781 19.175781 12.125 18.75 12.125 17.273438 Z M 12.101562 11.148438 "/>
<path style=" stroke:none;fill-rule:nonzero;fill:rgb(19.607843%,20%,18.823529%);fill-opacity:1;" d="M 16.199219 18.601562 C 16.773438 18.898438 17.699219 19.199219 18.625 19.199219 C 19.625 19.199219 20.148438 18.773438 20.148438 18.125 C 20.148438 17.523438 19.699219 17.175781 18.523438 16.773438 C 16.925781 16.199219 15.851562 15.300781 15.851562 13.875 C 15.851562 12.25 17.25 11 19.523438 11 C 20.625 11 21.425781 11.226562 22 11.5 L 21.5 13.25 C 21.125 13.074219 20.425781 12.800781 19.5 12.800781 C 18.550781 12.800781 18.101562 13.25 18.101562 13.726562 C 18.101562 14.351562 18.625 14.625 19.898438 15.101562 C 21.601562 15.726562 22.398438 16.625 22.398438 18 C 22.398438 19.625 21.175781 21 18.5 21 C 17.398438 21 16.300781 20.699219 15.75 20.398438 Z M 16.199219 18.601562 "/>
</g>
</svg>
