<?xml version="1.0" encoding="UTF-8"?>
<svg xmlns="http://www.w3.org/2000/svg" xmlns:xlink="http://www.w3.org/1999/xlink" width="32px" height="32px" viewBox="0 0 32 32" version="1.1">
<g id="surface1">
<path style=" stroke:none;fill-rule:nonzero;fill:rgb(20.392157%,47.843137%,70.588235%);fill-opacity:1;" d="M 12.125 15.015625 L 18.691406 15.015625 C 20.515625 15.015625 21.972656 13.507812 21.972656 11.675781 L 21.972656 5.414062 C 21.972656 3.628906 20.472656 2.296875 18.691406 1.996094 C 16.492188 1.632812 14.097656 1.648438 12.125 2 C 9.347656 2.492188 8.84375 3.519531 8.84375 5.417969 L 8.84375 6.757812 L 15.414062 6.757812 L 15.414062 8.757812 L 6.378906 8.757812 C 4.464844 8.757812 2.792969 9.90625 2.269531 12.089844 C 1.667969 14.589844 1.644531 16.152344 2.269531 18.765625 C 2.738281 20.707031 3.851562 22.097656 5.761719 22.097656 L 8.019531 22.097656 L 8.019531 19.097656 C 8.019531 16.929688 9.894531 15.015625 12.125 15.015625 Z M 12.125 15.015625 "/>
<path style=" stroke:none;fill-rule:nonzero;fill:rgb(15.294118%,36.078431%,52.941176%);fill-opacity:1;" d="M 8.019531 22.722656 L 5.761719 22.722656 C 3.710938 22.722656 2.253906 21.371094 1.664062 18.910156 C 1.027344 16.269531 1.027344 14.578125 1.664062 11.941406 C 1.945312 10.761719 2.550781 9.78125 3.417969 9.109375 C 4.246094 8.46875 5.269531 8.132812 6.375 8.132812 L 14.789062 8.132812 L 14.789062 7.382812 L 8.84375 7.382812 C 8.496094 7.382812 8.21875 7.105469 8.21875 6.757812 L 8.21875 5.417969 C 8.21875 4.546875 8.304688 3.550781 8.964844 2.777344 C 9.558594 2.082031 10.496094 1.652344 12.015625 1.386719 C 13.046875 1.203125 14.210938 1.105469 15.378906 1.105469 C 16.546875 1.105469 17.695312 1.195312 18.792969 1.378906 C 19.8125 1.550781 20.753906 2.023438 21.441406 2.703125 C 22.1875 3.445312 22.597656 4.40625 22.597656 5.414062 L 22.597656 11.675781 C 22.597656 13.863281 20.847656 15.640625 18.691406 15.640625 L 12.125 15.640625 C 10.269531 15.640625 8.644531 17.257812 8.644531 19.097656 L 8.644531 22.097656 C 8.644531 22.441406 8.363281 22.722656 8.019531 22.722656 Z M 6.378906 9.382812 C 4.613281 9.382812 3.304688 10.449219 2.878906 12.234375 C 2.28125 14.707031 2.28125 16.140625 2.878906 18.621094 C 3.191406 19.921875 3.945312 21.472656 5.761719 21.472656 L 7.394531 21.472656 L 7.394531 19.097656 C 7.394531 17.894531 7.902344 16.691406 8.792969 15.800781 C 9.699219 14.890625 10.882812 14.390625 12.125 14.390625 L 18.691406 14.390625 C 20.15625 14.390625 21.347656 13.171875 21.347656 11.675781 L 21.347656 5.414062 C 21.347656 3.878906 19.960938 2.84375 18.585938 2.609375 C 17.558594 2.441406 16.480469 2.355469 15.378906 2.355469 C 14.285156 2.355469 13.195312 2.445312 12.234375 2.617188 C 9.742188 3.058594 9.46875 3.847656 9.46875 5.417969 L 9.46875 6.132812 L 15.414062 6.132812 C 15.757812 6.132812 16.039062 6.414062 16.039062 6.757812 L 16.039062 8.757812 C 16.039062 9.101562 15.757812 9.382812 15.414062 9.382812 Z M 6.378906 9.382812 "/>
<path style=" stroke:none;fill-rule:nonzero;fill:rgb(100%,79.215686%,11.372549%);fill-opacity:1;" d="M 29.6875 13.085938 C 29.210938 11.1875 28.316406 9.753906 26.402344 9.753906 L 23.9375 9.753906 L 23.9375 12.667969 C 23.9375 14.929688 22.019531 16.835938 19.832031 16.835938 L 13.265625 16.835938 C 11.46875 16.835938 9.980469 18.371094 9.980469 20.175781 L 9.980469 26.433594 C 9.980469 28.214844 11.53125 29.261719 13.265625 29.769531 C 15.34375 30.378906 17.339844 30.492188 19.832031 29.769531 C 21.484375 29.292969 23.113281 28.328125 23.113281 26.433594 L 23.113281 25.121094 L 16.554688 25.121094 L 16.554688 23.09375 L 26.402344 23.09375 C 28.316406 23.09375 29.023438 21.761719 29.6875 19.761719 C 30.375 17.703125 30.34375 15.722656 29.6875 13.085938 Z M 29.6875 13.085938 "/>
<path style=" stroke:none;fill-rule:nonzero;fill:rgb(74.901961%,59.607843%,8.627451%);fill-opacity:1;" d="M 16.527344 30.894531 C 15.417969 30.894531 14.292969 30.722656 13.089844 30.371094 C 10.683594 29.664062 9.355469 28.265625 9.355469 26.433594 L 9.355469 20.175781 C 9.355469 18.027344 11.148438 16.210938 13.265625 16.210938 L 19.832031 16.210938 C 21.6875 16.210938 23.3125 14.554688 23.3125 12.667969 L 23.3125 9.753906 C 23.3125 9.410156 23.59375 9.128906 23.9375 9.128906 L 26.402344 9.128906 C 27.484375 9.128906 28.375 9.519531 29.054688 10.296875 C 29.597656 10.917969 30.003906 11.78125 30.292969 12.933594 C 30.992188 15.738281 30.988281 17.839844 30.277344 19.960938 C 29.648438 21.863281 28.828125 23.71875 26.402344 23.71875 L 17.179688 23.71875 L 17.179688 24.496094 L 23.113281 24.496094 C 23.460938 24.496094 23.738281 24.777344 23.738281 25.121094 L 23.738281 26.433594 C 23.738281 27.734375 23.089844 29.476562 20.003906 30.371094 C 18.785156 30.722656 17.648438 30.894531 16.527344 30.894531 Z M 13.265625 17.460938 C 11.824219 17.460938 10.605469 18.703125 10.605469 20.175781 L 10.605469 26.433594 C 10.605469 28.089844 12.382812 28.859375 13.441406 29.171875 C 14.542969 29.496094 15.523438 29.644531 16.527344 29.644531 C 17.527344 29.644531 18.554688 29.488281 19.65625 29.171875 C 21.535156 28.625 22.488281 27.703125 22.488281 26.433594 L 22.488281 25.746094 L 16.554688 25.746094 C 16.210938 25.746094 15.929688 25.464844 15.929688 25.121094 L 15.929688 23.09375 C 15.929688 22.75 16.210938 22.46875 16.554688 22.46875 L 26.402344 22.46875 C 27.726562 22.46875 28.351562 21.789062 29.09375 19.566406 C 29.730469 17.660156 29.726562 15.828125 29.078125 13.238281 C 28.585938 11.261719 27.761719 10.378906 26.402344 10.378906 L 24.5625 10.378906 L 24.5625 12.667969 C 24.5625 15.265625 22.394531 17.460938 19.832031 17.460938 Z M 13.265625 17.460938 "/>
<path style=" stroke:none;fill-rule:nonzero;fill:rgb(100%,100%,100%);fill-opacity:1;" d="M 11.714844 5.601562 C 11.058594 5.601562 10.527344 5.0625 10.527344 4.402344 C 10.535156 3.734375 11.058594 3.199219 11.714844 3.199219 C 12.363281 3.199219 12.898438 3.742188 12.898438 4.402344 C 12.898438 5.0625 12.367188 5.601562 11.714844 5.601562 Z M 11.714844 5.601562 "/>
<path style=" stroke:none;fill-rule:nonzero;fill:rgb(100%,100%,100%);fill-opacity:1;" d="M 19.683594 28.753906 C 19.027344 28.753906 18.496094 28.21875 18.496094 27.558594 C 18.5 26.890625 19.027344 26.351562 19.683594 26.351562 C 20.332031 26.351562 20.867188 26.894531 20.867188 27.558594 C 20.867188 28.21875 20.335938 28.753906 19.683594 28.753906 Z M 19.683594 28.753906 "/>
</g>
</svg>
