<?xml version="1.0" encoding="UTF-8"?>
<svg xmlns="http://www.w3.org/2000/svg" xmlns:xlink="http://www.w3.org/1999/xlink" width="32px" height="32px" viewBox="0 0 32 32" version="1.1">
<g id="surface1">
<path style=" stroke:none;fill-rule:nonzero;fill:rgb(14.117647%,12.156863%,12.54902%);fill-opacity:1;" d="M 31.433594 8.421875 L 31.40625 8.421875 C 30.859375 8.425781 30.773438 7.949219 30.761719 7.726562 L 30.761719 4.269531 C 30.761719 3.902344 30.464844 3.601562 30.097656 3.601562 L 20.214844 3.601562 C 17.734375 3.601562 16.808594 4.523438 16.578125 4.808594 L 16.515625 4.898438 L 16.320312 5.167969 C 16.058594 5.527344 15.828125 5.375 15.71875 5.257812 L 15.34375 4.789062 L 15.160156 4.566406 C 14.847656 4.242188 14.039062 3.601562 12.433594 3.601562 L 1.902344 3.601562 C 1.535156 3.601562 1.234375 3.902344 1.234375 4.269531 L 1.234375 7.683594 C 1.234375 8.28125 0.910156 8.402344 0.710938 8.421875 L 0.566406 8.421875 C 0.402344 8.429688 0.0273438 8.523438 0.0273438 9.21875 L 0.0273438 25.484375 C 0.0273438 25.882812 0.347656 26.203125 0.746094 26.203125 L 10.355469 26.203125 C 13.421875 26.203125 14.757812 27.359375 15.160156 27.804688 L 15.386719 28.085938 C 15.386719 28.085938 16 28.78125 16.648438 28.085938 L 16.78125 27.929688 L 16.953125 27.730469 C 16.960938 27.722656 17 27.675781 17.058594 27.617188 C 17.570312 27.117188 18.847656 26.203125 21.347656 26.203125 L 31.253906 26.203125 C 31.652344 26.203125 31.972656 25.882812 31.972656 25.484375 L 31.972656 9.0625 C 31.972656 8.472656 31.550781 8.425781 31.433594 8.421875 Z M 29.277344 22.929688 C 29.277344 23.25 29.007812 23.511719 28.675781 23.511719 L 20.527344 23.511719 C 17.628906 23.511719 16.574219 24.820312 16.574219 24.820312 L 16.441406 25 L 16.378906 25.085938 C 16.101562 25.460938 15.695312 25.089844 15.695312 25.085938 L 15.507812 24.851562 C 15.367188 24.683594 14.300781 23.507812 11.726562 23.507812 L 3.324219 23.507812 C 2.992188 23.507812 2.726562 23.25 2.726562 22.929688 L 2.726562 5.597656 C 2.726562 5.28125 2.992188 5.019531 3.324219 5.019531 L 9.847656 5.019531 C 14.699219 5.019531 15.15625 7.777344 15.1875 8.578125 L 15.1875 20.628906 C 15.1875 21.503906 15.605469 21.671875 15.839844 21.695312 L 16.191406 21.695312 C 16.433594 21.671875 16.8125 21.527344 16.8125 20.84375 L 16.8125 8.421875 L 16.808594 8.421875 C 16.84375 7.417969 17.238281 5.019531 20.152344 5.019531 L 28.675781 5.019531 C 29.007812 5.019531 29.277344 5.277344 29.277344 5.597656 Z M 29.277344 22.929688 "/>
</g>
</svg>
