<?xml version="1.0" encoding="UTF-8"?>
<svg xmlns="http://www.w3.org/2000/svg" xmlns:xlink="http://www.w3.org/1999/xlink" width="32px" height="32px" viewBox="0 0 32 32" version="1.1">
<g id="surface1">
<path style=" stroke:none;fill-rule:nonzero;fill:rgb(0%,0%,0%);fill-opacity:1;" d="M 24.066406 4.332031 C 24.066406 5.804688 22.871094 7 21.398438 7 C 19.925781 7 18.734375 5.804688 18.734375 4.332031 C 18.734375 2.859375 19.925781 1.667969 21.398438 1.667969 C 22.871094 1.667969 24.066406 2.859375 24.066406 4.332031 Z M 24.066406 4.332031 "/>
<path style=" stroke:none;fill-rule:nonzero;fill:rgb(0%,0%,0%);fill-opacity:1;" d="M 27.867188 8 C 27.199219 7.667969 26.398438 7.898438 26.066406 8.566406 L 24.898438 10.765625 L 19.765625 7.535156 C 19.566406 7.398438 19.332031 7.332031 19.066406 7.332031 L 13.398438 7.332031 C 12.898438 7.332031 12.464844 7.601562 12.234375 8.035156 L 10.066406 12.035156 C 9.699219 12.667969 9.964844 13.5 10.601562 13.832031 C 10.800781 13.933594 11.035156 14 11.234375 14 C 11.699219 14 12.167969 13.734375 12.398438 13.300781 L 14.199219 10 L 16.167969 10 L 10.265625 21 L 4.734375 21 C 4 21 3.398438 21.601562 3.398438 22.332031 C 3.398438 23.066406 4 23.667969 4.734375 23.667969 L 11.066406 23.667969 C 11.566406 23.667969 12 23.398438 12.234375 22.964844 L 14.566406 18.667969 L 18.398438 22.234375 L 18.101562 28.933594 C 18.035156 29.667969 18.601562 30.300781 19.332031 30.332031 C 19.367188 30.332031 19.367188 30.332031 19.398438 30.332031 C 20.101562 30.332031 20.699219 29.765625 20.734375 29.066406 L 21.066406 21.734375 C 21.101562 21.332031 20.933594 20.964844 20.632812 20.699219 L 17.398438 17.699219 L 20.800781 11.367188 L 24.667969 13.800781 C 24.964844 14 25.367188 14.066406 25.734375 13.964844 C 26.101562 13.867188 26.398438 13.632812 26.566406 13.300781 L 28.398438 9.800781 C 28.765625 9.167969 28.535156 8.367188 27.867188 8 Z M 27.867188 8 "/>
</g>
</svg>
