<?xml version="1.0" encoding="UTF-8"?>
<svg xmlns="http://www.w3.org/2000/svg" xmlns:xlink="http://www.w3.org/1999/xlink" width="32px" height="32px" viewBox="0 0 32 32" version="1.1">
<g id="surface1">
<path style=" stroke:none;fill-rule:nonzero;fill:rgb(14.117647%,12.156863%,12.54902%);fill-opacity:1;" d="M 31.960938 24.367188 C 31.96875 24.015625 31.953125 23.660156 31.921875 23.300781 C 31.546875 17.289062 28.773438 14.714844 28.773438 14.714844 L 28.769531 14.714844 C 27.816406 13.730469 26.484375 13.117188 25.007812 13.117188 C 24.199219 13.117188 23.441406 13.308594 22.761719 13.636719 L 22.75 13.632812 C 22.75 13.632812 22.675781 13.671875 22.554688 13.738281 C 22.503906 13.765625 22.453125 13.785156 22.40625 13.8125 L 22.402344 13.8125 C 22.402344 13.8125 22.398438 13.816406 22.398438 13.816406 C 22.386719 13.824219 22.378906 13.828125 22.367188 13.835938 C 21.78125 14.136719 20.578125 14.691406 19.222656 14.996094 C 18.28125 15.21875 18.191406 14.460938 18.1875 14.257812 L 18.1875 13.867188 C 18.152344 13.449219 17.933594 12.679688 16.84375 12.507812 L 16.84375 7.664062 C 16.84375 7.664062 16.84375 7.664062 16.847656 7.664062 L 16.851562 5.972656 C 16.851562 5.972656 16.730469 4.378906 17.429688 3.746094 C 17.449219 3.722656 17.472656 3.699219 17.492188 3.679688 C 17.503906 3.671875 17.507812 3.660156 17.519531 3.652344 C 17.523438 3.652344 17.527344 3.652344 17.53125 3.648438 C 17.996094 3.242188 18.59375 3.179688 18.949219 3.179688 C 19.039062 3.183594 20.582031 3.300781 20.582031 5.433594 L 20.582031 8.390625 L 20.589844 8.390625 C 20.613281 9.976562 21.902344 11.253906 23.496094 11.253906 C 24.875 11.253906 26.007812 10.289062 26.304688 9 C 26.3125 8.988281 26.316406 8.984375 26.320312 8.96875 C 26.386719 8.773438 26.390625 8.617188 26.382812 8.484375 C 26.382812 8.480469 26.382812 8.476562 26.382812 8.476562 C 26.382812 8.46875 26.378906 8.460938 26.378906 8.453125 C 26.367188 8.367188 26.355469 8.300781 26.335938 8.246094 C 26.328125 8.226562 26.324219 8.207031 26.3125 8.191406 C 26.289062 8.132812 26.265625 8.09375 26.265625 8.09375 L 26.253906 8.101562 C 26.132812 7.921875 25.933594 7.792969 25.699219 7.792969 C 25.382812 7.792969 25.132812 8.019531 25.058594 8.316406 C 25.054688 8.335938 25.042969 8.363281 25.035156 8.390625 L 25.027344 8.390625 C 25.027344 8.390625 25.027344 8.402344 25.027344 8.410156 C 24.910156 8.734375 24.6875 9.269531 24.421875 9.414062 C 24.132812 9.621094 23.675781 9.820312 23.179688 9.582031 C 22.597656 9.265625 22.195312 8.664062 22.195312 7.957031 C 22.195312 7.902344 22.203125 7.855469 22.207031 7.808594 L 22.195312 7.808594 L 22.195312 4.277344 C 22.195312 3.691406 21.859375 3.097656 21.605469 2.726562 C 21.59375 2.710938 21.582031 2.695312 21.570312 2.679688 C 21.519531 2.609375 21.472656 2.542969 21.433594 2.492188 L 21.417969 2.492188 C 20.773438 1.683594 19.789062 1.152344 18.675781 1.152344 C 17.128906 1.152344 15.835938 2.15625 15.367188 3.542969 C 15.28125 3.875 15.15625 4.664062 15.15625 6.457031 L 15.15625 12.480469 C 13.953125 12.550781 13.820312 13.527344 13.8125 13.871094 L 13.8125 14.179688 C 13.789062 14.550781 13.601562 15.28125 12.460938 14.960938 C 11.304688 14.671875 10.355469 14.191406 9.902344 13.933594 C 9.835938 13.890625 9.765625 13.851562 9.695312 13.808594 C 9.644531 13.777344 9.609375 13.757812 9.609375 13.757812 L 9.609375 13.761719 C 8.871094 13.355469 8.019531 13.117188 7.113281 13.117188 C 6 13.117188 4.972656 13.464844 4.125 14.054688 L 4.121094 14.050781 C 4.121094 14.050781 4.023438 14.121094 3.863281 14.246094 C 3.550781 14.496094 3.261719 14.78125 3.011719 15.09375 C 1.964844 16.308594 0.511719 18.710938 0.144531 22.859375 C 0.0429688 23.527344 0.015625 24.183594 0.0507812 24.820312 C 0.0507812 24.84375 0.046875 24.867188 0.046875 24.890625 C 0.0507812 24.890625 0.0507812 24.890625 0.0546875 24.890625 C 0.222656 27.640625 1.613281 29.933594 3.835938 30.632812 C 5.78125 31.246094 7.898438 30.492188 9.542969 28.851562 L 9.542969 28.855469 C 9.542969 28.855469 9.558594 28.835938 9.582031 28.808594 C 9.65625 28.738281 9.726562 28.664062 9.796875 28.589844 C 10.230469 28.15625 11.203125 27.296875 12.554688 26.707031 C 12.601562 26.683594 12.660156 26.660156 12.738281 26.632812 C 12.753906 26.625 12.765625 26.621094 12.777344 26.617188 C 13.710938 26.277344 16.425781 25.527344 19.601562 26.851562 C 21.003906 27.5 22.089844 28.382812 22.558594 28.800781 C 22.5625 28.804688 22.566406 28.804688 22.566406 28.808594 C 22.726562 28.949219 22.816406 29.039062 22.816406 29.039062 L 22.816406 29.019531 C 24.402344 30.429688 26.355469 31.054688 28.164062 30.484375 C 30.472656 29.757812 31.882812 27.316406 31.960938 24.429688 C 31.960938 24.429688 31.964844 24.425781 31.964844 24.425781 C 31.964844 24.40625 31.960938 24.386719 31.960938 24.367188 Z M 10.152344 21.664062 C 10.179688 22.394531 9.578125 22.523438 9.265625 22.539062 L 8.925781 22.539062 C 8.359375 22.539062 8.253906 22.929688 8.238281 23.15625 L 8.238281 23.5625 C 8.238281 24.300781 7.746094 24.4375 7.472656 24.457031 L 7.082031 24.457031 C 6.414062 24.457031 6.359375 23.828125 6.355469 23.664062 L 6.355469 23.140625 C 6.347656 22.589844 5.847656 22.542969 5.707031 22.539062 L 5.496094 22.539062 C 4.636719 22.546875 4.464844 22.085938 4.441406 21.808594 L 4.441406 21.597656 C 4.445312 20.742188 5.1875 20.660156 5.425781 20.65625 L 5.695312 20.65625 C 6.238281 20.65625 6.339844 20.304688 6.355469 20.113281 L 6.355469 19.632812 C 6.355469 18.824219 7.070312 18.746094 7.300781 18.742188 C 7.328125 18.742188 8.238281 18.730469 8.238281 19.648438 L 8.238281 20.066406 C 8.246094 20.234375 8.316406 20.664062 8.902344 20.660156 L 9.222656 20.660156 C 9.480469 20.667969 10.15625 20.761719 10.15625 21.597656 L 10.15625 21.664062 Z M 10.152344 21.664062 "/>
</g>
</svg>
